<?xml version="1.0" encoding="UTF-8"?>
<svg width="255px" height="73px" viewBox="0 0 255 73" version="1.1" xmlns="http://www.w3.org/2000/svg" xmlns:xlink="http://www.w3.org/1999/xlink">
    <title>Group 5</title>
    <defs>
        <polygon id="path-1" points="7.875 2.575 13.75 2.575 13.75 0.75 0 0.75 0 2.575 5.875 2.575 5.875 18.25 7.875 18.25"></polygon>
        <path d="M29.8,11.775 C29.8,10.8583333 29.6333333,9.99166667 29.3,9.175 C28.9666667,8.35833333 28.5,7.64583333 27.9,7.0375 C27.3,6.42916667 26.5875,5.94583333 25.7625,5.5875 C24.9375,5.22916667 24.0416667,5.05 23.075,5.05 C22.0916667,5.05 21.1875,5.22916667 20.3625,5.5875 C19.5375,5.94583333 18.825,6.43333333 18.225,7.05 C17.625,7.66666667 17.1583333,8.3875 16.825,9.2125 C16.4916667,10.0375 16.325,10.9083333 16.325,11.825 C16.325,12.7416667 16.4916667,13.6083333 16.825,14.425 C17.1583333,15.2416667 17.625,15.9541667 18.225,16.5625 C18.825,17.1708333 19.5333333,17.6541667 20.35,18.0125 C21.1666667,18.3708333 22.0583333,18.55 23.025,18.55 C23.9916667,18.55 24.8916667,18.3708333 25.725,18.0125 C26.5583333,17.6541667 27.275,17.1666667 27.875,16.55 C28.475,15.9333333 28.9458333,15.2125 29.2875,14.3875 C29.6291667,13.5625 29.8,12.6916667 29.8,11.775 Z M27.825,11.825 C27.825,12.525 27.7083333,13.1791667 27.475,13.7875 C27.2416667,14.3958333 26.9166667,14.925 26.5,15.375 C26.0833333,15.825 25.5833333,16.1791667 25,16.4375 C24.4166667,16.6958333 23.775,16.825 23.075,16.825 C22.3916667,16.825 21.7583333,16.6916667 21.175,16.425 C20.5916667,16.1583333 20.0875,15.8 19.6625,15.35 C19.2375,14.9 18.9041667,14.3666667 18.6625,13.75 C18.4208333,13.1333333 18.3,12.475 18.3,11.775 C18.3,11.075 18.4166667,10.4208333 18.65,9.8125 C18.8833333,9.20416667 19.2041667,8.67083333 19.6125,8.2125 C20.0208333,7.75416667 20.5166667,7.39583333 21.1,7.1375 C21.6833333,6.87916667 22.325,6.75 23.025,6.75 C23.7083333,6.75 24.3416667,6.88333333 24.925,7.15 C25.5083333,7.41666667 26.0166667,7.77916667 26.45,8.2375 C26.8833333,8.69583333 27.2208333,9.23333333 27.4625,9.85 C27.7041667,10.4666667 27.825,11.125 27.825,11.825 Z" id="path-2"></path>
        <path d="M43.525,7.625 C43.175,6.89166667 42.6583333,6.27916667 41.975,5.7875 C41.2916667,5.29583333 40.425,5.05 39.375,5.05 C38.825,5.05 38.3416667,5.11666667 37.925,5.25 C37.5083333,5.38333333 37.1333333,5.5625 36.8,5.7875 C36.4666667,6.0125 36.1708333,6.275 35.9125,6.575 C35.6541667,6.875 35.4166667,7.18333333 35.2,7.5 L35.2,5.325 L33.275,5.325 L33.275,18.25 L35.2,18.25 L35.2,10.875 C35.2,10.275 35.2916667,9.72916667 35.475,9.2375 C35.6583333,8.74583333 35.9125,8.31666667 36.2375,7.95 C36.5625,7.58333333 36.9416667,7.3 37.375,7.1 C37.8083333,6.9 38.2833333,6.8 38.8,6.8 C39.8333333,6.8 40.6458333,7.1375 41.2375,7.8125 C41.8291667,8.4875 42.125,9.43333333 42.125,10.65 L42.125,18.25 L44.025,18.25 L44.025,10.8 C44.025,10.1666667 44.1208333,9.6 44.3125,9.1 C44.5041667,8.6 44.7625,8.17916667 45.0875,7.8375 C45.4125,7.49583333 45.7916667,7.2375 46.225,7.0625 C46.6583333,6.8875 47.1166667,6.8 47.6,6.8 C48.65,6.8 49.4708333,7.1375 50.0625,7.8125 C50.6541667,8.4875 50.95,9.45 50.95,10.7 L50.95,18.25 L52.875,18.25 L52.875,10.25 C52.875,8.63333333 52.45,7.3625 51.6,6.4375 C50.75,5.5125 49.575,5.05 48.075,5.05 C47.5083333,5.05 46.9958333,5.11666667 46.5375,5.25 C46.0791667,5.38333333 45.6666667,5.56666667 45.3,5.8 C44.9333333,6.03333333 44.6041667,6.30833333 44.3125,6.625 C44.0208333,6.94166667 43.7583333,7.275 43.525,7.625 Z" id="path-3"></path>
        <path d="M61.725,6.85 C62.9416667,6.85 63.8875,7.14583333 64.5625,7.7375 C65.2375,8.32916667 65.575,9.20833333 65.575,10.375 L65.575,10.825 C64.9916667,10.6583333 64.3916667,10.525 63.775,10.425 C63.1583333,10.325 62.4333333,10.275 61.6,10.275 C60.7833333,10.275 60.0375,10.3666667 59.3625,10.55 C58.6875,10.7333333 58.1041667,11 57.6125,11.35 C57.1208333,11.7 56.7416667,12.1375 56.475,12.6625 C56.2083333,13.1875 56.075,13.7916667 56.075,14.475 C56.075,15.1583333 56.2125,15.75 56.4875,16.25 C56.7625,16.75 57.1291667,17.1708333 57.5875,17.5125 C58.0458333,17.8541667 58.5625,18.1083333 59.1375,18.275 C59.7125,18.4416667 60.3,18.525 60.9,18.525 C62.05,18.525 63.0041667,18.3 63.7625,17.85 C64.5208333,17.4 65.125,16.8833333 65.575,16.3 L65.575,18.25 L67.425,18.25 L67.425,10.35 C67.425,8.63333333 66.95,7.3375 66,6.4625 C65.05,5.5875 63.6916667,5.15 61.925,5.15 C60.975,5.15 60.1333333,5.24583333 59.4,5.4375 C58.6666667,5.62916667 57.9416667,5.89166667 57.225,6.225 L57.8,7.8 C58.4,7.51666667 59.0125,7.2875 59.6375,7.1125 C60.2625,6.9375 60.9583333,6.85 61.725,6.85 Z M61.8,11.7 C62.6,11.7 63.3125,11.7583333 63.9375,11.875 C64.5625,11.9916667 65.1166667,12.1166667 65.6,12.25 L65.6,13.5 C65.6,14.0166667 65.4875,14.4875 65.2625,14.9125 C65.0375,15.3375 64.7291667,15.7041667 64.3375,16.0125 C63.9458333,16.3208333 63.4875,16.5625 62.9625,16.7375 C62.4375,16.9125 61.875,17 61.275,17 C60.8416667,17 60.4291667,16.9416667 60.0375,16.825 C59.6458333,16.7083333 59.3,16.5375 59,16.3125 C58.7,16.0875 58.4625,15.8166667 58.2875,15.5 C58.1125,15.1833333 58.025,14.8166667 58.025,14.4 C58.025,13.5666667 58.35,12.9083333 59,12.425 C59.65,11.9416667 60.5833333,11.7 61.8,11.7 Z" id="path-4"></path>
        <path d="M74.125,7.025 L78.225,7.025 L78.225,5.325 L74.125,5.325 L74.125,1.425 L72.2,1.425 L72.2,5.325 L70.4,5.325 L70.4,7.025 L72.2,7.025 L72.2,14.825 C72.2,15.475 72.2916667,16.0333333 72.475,16.5 C72.6583333,16.9666667 72.9125,17.3458333 73.2375,17.6375 C73.5625,17.9291667 73.95,18.1416667 74.4,18.275 C74.85,18.4083333 75.3333333,18.475 75.85,18.475 C76.3166667,18.475 76.7375,18.4291667 77.1125,18.3375 C77.4875,18.2458333 77.8416667,18.1083333 78.175,17.925 L78.175,16.275 C77.8416667,16.4416667 77.5291667,16.5583333 77.2375,16.625 C76.9458333,16.6916667 76.6333333,16.725 76.3,16.725 C75.65,16.725 75.125,16.5666667 74.725,16.25 C74.325,15.9333333 74.125,15.375 74.125,14.575 L74.125,7.025 Z" id="path-5"></path>
        <path d="M94.3,11.775 C94.3,10.8583333 94.1333333,9.99166667 93.8,9.175 C93.4666667,8.35833333 93,7.64583333 92.4,7.0375 C91.8,6.42916667 91.0875,5.94583333 90.2625,5.5875 C89.4375,5.22916667 88.5416667,5.05 87.575,5.05 C86.5916667,5.05 85.6875,5.22916667 84.8625,5.5875 C84.0375,5.94583333 83.325,6.43333333 82.725,7.05 C82.125,7.66666667 81.6583333,8.3875 81.325,9.2125 C80.9916667,10.0375 80.825,10.9083333 80.825,11.825 C80.825,12.7416667 80.9916667,13.6083333 81.325,14.425 C81.6583333,15.2416667 82.125,15.9541667 82.725,16.5625 C83.325,17.1708333 84.0333333,17.6541667 84.85,18.0125 C85.6666667,18.3708333 86.5583333,18.55 87.525,18.55 C88.4916667,18.55 89.3916667,18.3708333 90.225,18.0125 C91.0583333,17.6541667 91.775,17.1666667 92.375,16.55 C92.975,15.9333333 93.4458333,15.2125 93.7875,14.3875 C94.1291667,13.5625 94.3,12.6916667 94.3,11.775 Z M92.325,11.825 C92.325,12.525 92.2083333,13.1791667 91.975,13.7875 C91.7416667,14.3958333 91.4166667,14.925 91,15.375 C90.5833333,15.825 90.0833333,16.1791667 89.5,16.4375 C88.9166667,16.6958333 88.275,16.825 87.575,16.825 C86.8916667,16.825 86.2583333,16.6916667 85.675,16.425 C85.0916667,16.1583333 84.5875,15.8 84.1625,15.35 C83.7375,14.9 83.4041667,14.3666667 83.1625,13.75 C82.9208333,13.1333333 82.8,12.475 82.8,11.775 C82.8,11.075 82.9166667,10.4208333 83.15,9.8125 C83.3833333,9.20416667 83.7041667,8.67083333 84.1125,8.2125 C84.5208333,7.75416667 85.0166667,7.39583333 85.6,7.1375 C86.1833333,6.87916667 86.825,6.75 87.525,6.75 C88.2083333,6.75 88.8416667,6.88333333 89.425,7.15 C90.0083333,7.41666667 90.5166667,7.77916667 90.95,8.2375 C91.3833333,8.69583333 91.7208333,9.23333333 91.9625,9.85 C92.2041667,10.4666667 92.325,11.125 92.325,11.825 Z" id="path-6"></path>
        <polygon id="path-7" points="112.225 2.575 118.1 2.575 118.1 0.75 104.35 0.75 104.35 2.575 110.225 2.575 110.225 18.25 112.225 18.25"></polygon>
        <path d="M123.4,13.1 C123.4,12.1333333 123.533333,11.2791667 123.8,10.5375 C124.066667,9.79583333 124.433333,9.175 124.9,8.675 C125.366667,8.175 125.9125,7.8 126.5375,7.55 C127.1625,7.3 127.825,7.175 128.525,7.175 L128.675,7.175 L128.675,5.1 C128.058333,5.08333333 127.483333,5.15833333 126.95,5.325 C126.416667,5.49166667 125.925,5.7375 125.475,6.0625 C125.025,6.3875 124.625,6.775 124.275,7.225 C123.925,7.675 123.633333,8.16666667 123.4,8.7 L123.4,5.325 L121.475,5.325 L121.475,18.25 L123.4,18.25 L123.4,13.1 Z" id="path-8"></path>
        <path d="M144.275,11.775 C144.275,10.8583333 144.108333,9.99166667 143.775,9.175 C143.441667,8.35833333 142.975,7.64583333 142.375,7.0375 C141.775,6.42916667 141.0625,5.94583333 140.2375,5.5875 C139.4125,5.22916667 138.516667,5.05 137.55,5.05 C136.566667,5.05 135.6625,5.22916667 134.8375,5.5875 C134.0125,5.94583333 133.3,6.43333333 132.7,7.05 C132.1,7.66666667 131.633333,8.3875 131.3,9.2125 C130.966667,10.0375 130.8,10.9083333 130.8,11.825 C130.8,12.7416667 130.966667,13.6083333 131.3,14.425 C131.633333,15.2416667 132.1,15.9541667 132.7,16.5625 C133.3,17.1708333 134.008333,17.6541667 134.825,18.0125 C135.641667,18.3708333 136.533333,18.55 137.5,18.55 C138.466667,18.55 139.366667,18.3708333 140.2,18.0125 C141.033333,17.6541667 141.75,17.1666667 142.35,16.55 C142.95,15.9333333 143.420833,15.2125 143.7625,14.3875 C144.104167,13.5625 144.275,12.6916667 144.275,11.775 Z M142.3,11.825 C142.3,12.525 142.183333,13.1791667 141.95,13.7875 C141.716667,14.3958333 141.391667,14.925 140.975,15.375 C140.558333,15.825 140.058333,16.1791667 139.475,16.4375 C138.891667,16.6958333 138.25,16.825 137.55,16.825 C136.866667,16.825 136.233333,16.6916667 135.65,16.425 C135.066667,16.1583333 134.5625,15.8 134.1375,15.35 C133.7125,14.9 133.379167,14.3666667 133.1375,13.75 C132.895833,13.1333333 132.775,12.475 132.775,11.775 C132.775,11.075 132.891667,10.4208333 133.125,9.8125 C133.358333,9.20416667 133.679167,8.67083333 134.0875,8.2125 C134.495833,7.75416667 134.991667,7.39583333 135.575,7.1375 C136.158333,6.87916667 136.8,6.75 137.5,6.75 C138.183333,6.75 138.816667,6.88333333 139.4,7.15 C139.983333,7.41666667 140.491667,7.77916667 140.925,8.2375 C141.358333,8.69583333 141.695833,9.23333333 141.9375,9.85 C142.179167,10.4666667 142.3,11.125 142.3,11.825 Z" id="path-9"></path>
        <polygon id="path-10" points="149.85 18.25 149.85 0 147.925 0 147.925 18.25"></polygon>
        <polygon id="path-11" points="156.425 18.25 156.425 0 154.5 0 154.5 18.25"></polygon>
        <path d="M162.05,12.5 L172.3,12.5 C172.316667,12.3833333 172.325,12.275 172.325,12.175 C172.325,12.075 172.325,11.9833333 172.325,11.9 C172.325,10.95 172.191667,10.0583333 171.925,9.225 C171.658333,8.39166667 171.266667,7.66666667 170.75,7.05 C170.233333,6.43333333 169.6,5.94583333 168.85,5.5875 C168.1,5.22916667 167.25,5.05 166.3,5.05 C165.4,5.05 164.570833,5.225 163.8125,5.575 C163.054167,5.925 162.4,6.40416667 161.85,7.0125 C161.3,7.62083333 160.870833,8.3375 160.5625,9.1625 C160.254167,9.9875 160.1,10.8666667 160.1,11.8 C160.1,12.8 160.270833,13.7166667 160.6125,14.55 C160.954167,15.3833333 161.416667,16.0958333 162,16.6875 C162.583333,17.2791667 163.266667,17.7375 164.05,18.0625 C164.833333,18.3875 165.666667,18.55 166.55,18.55 C167.783333,18.55 168.816667,18.3291667 169.65,17.8875 C170.483333,17.4458333 171.225,16.8583333 171.875,16.125 L170.675,15.05 C170.141667,15.6 169.554167,16.0416667 168.9125,16.375 C168.270833,16.7083333 167.5,16.875 166.6,16.875 C166.033333,16.875 165.491667,16.7791667 164.975,16.5875 C164.458333,16.3958333 163.991667,16.1125 163.575,15.7375 C163.158333,15.3625 162.816667,14.9041667 162.55,14.3625 C162.283333,13.8208333 162.116667,13.2 162.05,12.5 Z M162.05,11.075 C162.116667,10.4416667 162.266667,9.85833333 162.5,9.325 C162.733333,8.79166667 163.033333,8.32916667 163.4,7.9375 C163.766667,7.54583333 164.191667,7.2375 164.675,7.0125 C165.158333,6.7875 165.683333,6.675 166.25,6.675 C166.9,6.675 167.470833,6.79583333 167.9625,7.0375 C168.454167,7.27916667 168.870833,7.6 169.2125,8 C169.554167,8.4 169.820833,8.86666667 170.0125,9.4 C170.204167,9.93333333 170.325,10.4916667 170.375,11.075 L162.05,11.075 Z" id="path-12"></path>
        <path d="M187.425,5.325 L185.375,5.325 L181.225,16.1 L176.525,5.325 L174.4,5.325 L180.275,18.2 C179.891667,19.1166667 179.5,19.75 179.1,20.1 C178.7,20.45 178.208333,20.625 177.625,20.625 C177.208333,20.625 176.845833,20.5875 176.5375,20.5125 C176.229167,20.4375 175.916667,20.3166667 175.6,20.15 L174.95,21.675 C175.383333,21.8916667 175.816667,22.0541667 176.25,22.1625 C176.683333,22.2708333 177.166667,22.325 177.7,22.325 C178.666667,22.325 179.4875,22.05 180.1625,21.5 C180.8375,20.95 181.45,20.0083333 182,18.675 L187.425,5.325 Z" id="path-13"></path>
    </defs>
    <g id="06-Tomato-Trolley-10052022" stroke="none" stroke-width="1" fill="none" fill-rule="evenodd">
        <g id="001_TomatoTrolley_Screen01-Copy-2" transform="translate(-89.000000, -70.000000)">
            <g id="Group-17" transform="translate(0.000000, -120.000000)">
                <g id="Group-5" transform="translate(89.225000, 190.000000)">
                    <g id="Tomato-Trolley" transform="translate(0.000000, 49.750000)" fill="#000000" fill-rule="nonzero">
                        <g id="Path">
                            <use xlink:href="#path-1"></use>
                            <use xlink:href="#path-1"></use>
                        </g>
                        <g id="Shape">
                            <use xlink:href="#path-2"></use>
                            <use xlink:href="#path-2"></use>
                        </g>
                        <g id="Path">
                            <use xlink:href="#path-3"></use>
                            <use xlink:href="#path-3"></use>
                        </g>
                        <g id="Shape">
                            <use xlink:href="#path-4"></use>
                            <use xlink:href="#path-4"></use>
                        </g>
                        <g id="Path">
                            <use xlink:href="#path-5"></use>
                            <use xlink:href="#path-5"></use>
                        </g>
                        <g id="Shape">
                            <use xlink:href="#path-6"></use>
                            <use xlink:href="#path-6"></use>
                        </g>
                        <g id="Path">
                            <use xlink:href="#path-7"></use>
                            <use xlink:href="#path-7"></use>
                        </g>
                        <g id="Path">
                            <use xlink:href="#path-8"></use>
                            <use xlink:href="#path-8"></use>
                        </g>
                        <g id="Shape">
                            <use xlink:href="#path-9"></use>
                            <use xlink:href="#path-9"></use>
                        </g>
                        <g id="Path">
                            <use xlink:href="#path-10"></use>
                            <use xlink:href="#path-10"></use>
                        </g>
                        <g id="Path">
                            <use xlink:href="#path-11"></use>
                            <use xlink:href="#path-11"></use>
                        </g>
                        <g id="Shape">
                            <use xlink:href="#path-12"></use>
                            <use xlink:href="#path-12"></use>
                        </g>
                        <g id="Path">
                            <use xlink:href="#path-13"></use>
                            <use xlink:href="#path-13"></use>
                        </g>
                    </g>
                    <g id="Group-Copy" transform="translate(2.775000, 0.000000)">
                        <polygon id="Rectangle-Copy-8" fill="#FFB955" transform="translate(224.270270, 42.715043) scale(-1, 1) rotate(90.000000) translate(-224.270270, -42.715043) " points="229.416907 15.4717994 229.416907 69.9582859 219.123634 63.7402913 219.123634 21.8412607"></polygon>
                        <polygon id="Rectangle-Copy-9" fill="#FFB955" points="252 47.3938034 224.42355 3.41345305 218.918919 13.6661095 239.980472 47.0350076"></polygon>
                        <polygon id="Rectangle-Copy-10" fill="#FFB955" points="196.540541 47.3938034 224.140677 3.41345305 229.621622 13.6698353 208.682605 47.0349735"></polygon>
                        <path d="M1.82188128e-12,3.41345305 L5.40140056,4.23844982 C8.45049733,4.70416145 10.7027027,7.32648232 10.7027027,10.4109399 L10.7027027,46.4580512 L10.7027027,46.4580512 L1.82188128e-12,46.4580512 L1.82188128e-12,3.41345305 Z" id="Rectangle-Copy-11" fill="#000000"></path>
                        <polygon id="Rectangle-Copy-12" fill="#000000" transform="translate(18.000000, 41.311414) rotate(90.000000) translate(-18.000000, -41.311414) " points="12.8533633 23.3114145 23.1466367 23.3114145 23.1466367 59.3114145 12.8533633 59.3114145"></polygon>
                        <path d="M59.3513514,2.47770091 L64.6207276,3.30002896 C67.7482304,3.78810063 70.0540541,6.48167559 70.0540541,9.64703303 L70.0540541,46.4580512 L70.0540541,46.4580512 L65.9212938,46.4580512 C62.2928148,46.4580512 59.3513514,43.5165878 59.3513514,39.8881088 L59.3513514,2.47770091 L59.3513514,2.47770091 Z" id="Rectangle-Copy-13" fill="#000000"></path>
                        <rect id="Rectangle-Copy-14" fill="#000000" x="94.3783784" y="2.47770091" width="10.7027027" height="43.9803503"></rect>
                        <path d="M73.1776876,23.2928041 L83.4709611,23.2928041 L83.4709611,53.6958346 C83.4709611,57.3243136 80.5294977,60.265777 76.9010187,60.265777 L73.1776876,60.265777 L73.1776876,60.265777 L73.1776876,23.2928041 Z" id="Rectangle-Copy-15" fill="#000000" transform="translate(78.324324, 41.779291) rotate(90.000000) translate(-78.324324, -41.779291) "></path>
                        <path d="M133.297297,3.41345305 L138.566674,4.2357811 C141.694176,4.72385277 144,7.41742773 144,10.5827852 L144,40.1394605 L144,40.1394605 L138.425357,43.9179802 C136.923583,44.9358898 134.880976,44.5436401 133.863066,43.0418662 C133.494377,42.4979198 133.297297,41.8559 133.297297,41.1987779 L133.297297,3.41345305 L133.297297,3.41345305 Z" id="Rectangle-Copy-16" fill="#000000" transform="translate(138.648649, 25.403628) scale(1, -1) translate(-138.648649, -25.403628) "></path>
                        <polygon id="Rectangle-Copy-17" fill="#000000" points="168.324324 3.41345305 179.027027 3.41345305 179.027027 47.3938034 168.324324 39.3580544"></polygon>
                        <path d="M155.0644,-4.56009044 L160.681517,-0.461664562 L160.681517,-0.461664562 L161.589564,49.6441358 C161.622437,51.4580775 160.178596,52.9552168 158.364655,52.9880901 C157.613453,53.0017038 156.880285,52.7573992 156.287395,52.2959109 L151.399711,48.4914743 L151.399711,48.4914743 L149.844779,-1.80488864 C149.788717,-3.61826177 151.2133,-5.1337377 153.026673,-5.18979886 C153.757048,-5.21237868 154.474101,-4.99079129 155.0644,-4.56009044 Z" id="Rectangle-Copy-18" fill="#000000" transform="translate(155.675676, 24.000000) scale(-1, 1) rotate(54.000000) translate(-155.675676, -24.000000) "></path>
                    </g>
                </g>
            </g>
        </g>
    </g>
</svg>